<svg id="Layer_1" data-name="Layer 1" xmlns="http://www.w3.org/2000/svg" viewBox="0 0 229.51 300"><title>NABARD</title><path d="M217.77,292.93a13.53,13.53,0,0,0,1-2.35,17,17,0,0,0,.69-2.75c.16-1,.31-2.05.4-3.17s.13-2.33.13-3.63a29.7,29.7,0,0,0-.73-6.9,17.34,17.34,0,0,0-.84-2.89,15.72,15.72,0,0,0-1.23-2.42,10.93,10.93,0,0,0-1.52-1.94,10.41,10.41,0,0,0-1.89-1.47,9.32,9.32,0,0,0-4.69-1.2h-1.86c-.36,0-.63,0-.91,0h-.64V294a4.9,4.9,0,0,0,.16.78,2.61,2.61,0,0,0,.32.7,4.52,4.52,0,0,0,.46.62,5,5,0,0,0,.62.5,5.75,5.75,0,0,0,.74.38,3.72,3.72,0,0,0,.92.21c.34,0,.72.05,1.13.05a11.06,11.06,0,0,0,2.5-.26,6.88,6.88,0,0,0,2.11-.83,8,8,0,0,0,1.77-1.4,9.35,9.35,0,0,0,1.36-1.89m4.86-27.24a17.36,17.36,0,0,1,6.4,10.29,24.51,24.51,0,0,1,.47,5.06,23.68,23.68,0,0,1-.41,4.52,15,15,0,0,1-1.29,3.86,16.76,16.76,0,0,1-2,3.27,16.18,16.18,0,0,1-2.5,2.6,17.94,17.94,0,0,1-3,2,21.21,21.21,0,0,1-3.45,1.42,27.76,27.76,0,0,1-3.72.83,25.1,25.1,0,0,1-3.87.28h-17v-2.08a13.56,13.56,0,0,0,1.91-.17c.37-.05.67-.1.94-.16a3.74,3.74,0,0,0,.57-.17,2.7,2.7,0,0,0,.74-.46,1.93,1.93,0,0,0,.47-.63,4,4,0,0,0,.3-1.67V267.48a4.33,4.33,0,0,0-.3-1.67,1.55,1.55,0,0,0-.46-.67,4,4,0,0,0-.75-.54,7.82,7.82,0,0,0-.91-.36,5.71,5.71,0,0,0-1-.24l-.91-.13a3.16,3.16,0,0,1-.64-.09v-2.09h17.91a21.4,21.4,0,0,1,3,.21,28.52,28.52,0,0,1,3.19.62,16.18,16.18,0,0,1,3.22,1.19,20.85,20.85,0,0,1,3.11,1.87M176,271.46c0-2.5-.63-4.39-1.9-5.59a6.15,6.15,0,0,0-2.3-1.32,9.92,9.92,0,0,0-3.11-.44h-1.84v15.95h1.8a8.4,8.4,0,0,0,3.1-.53A6.24,6.24,0,0,0,174,278a6.85,6.85,0,0,0,1.46-2.67,13.56,13.56,0,0,0,.49-3.85m16.18,28.22H179.24c-1.11-1.91-2.15-3.65-3.09-5.18s-1.77-2.87-2.5-4-1.56-2.4-2.5-3.71-1.93-2.74-3-4.24h-1.31v11.64a3.91,3.91,0,0,0,.29,1.66,2.59,2.59,0,0,0,.48.61,2.8,2.8,0,0,0,.74.49,3.07,3.07,0,0,0,.6.22l.83.22.92.21.73.12v2.08h-18V297.7l.83-.11c.3,0,.65-.08,1-.11s.67-.1,1-.18a2.39,2.39,0,0,0,.62-.21,3,3,0,0,0,.75-.48,2,2,0,0,0,.46-.61,4,4,0,0,0,.29-1.67V267.55q0-.44,0-.87a3.23,3.23,0,0,0-.2-.71,2.06,2.06,0,0,0-.45-.64,3.67,3.67,0,0,0-.84-.52,8.52,8.52,0,0,0-.83-.32c-.31-.1-.63-.2-1-.28s-.63-.12-.9-.19l-.7-.15v-2.08h18.9a25.11,25.11,0,0,1,5.6.57A12.47,12.47,0,0,1,182,264a7.11,7.11,0,0,1,2.5,2.8,9,9,0,0,1,.83,3.95,9.49,9.49,0,0,1-2,6.4,10,10,0,0,1-2.58,2.19,16,16,0,0,1-3.61,1.6c.53.83,1.11,1.66,1.75,2.56l2.05,2.92c.7,1,1.44,2.09,2.18,3.14s1.52,2.1,2.3,3.16c.24.37.52.75.83,1.19a17.64,17.64,0,0,0,1.14,1.4,11.42,11.42,0,0,0,1.2,1.21,3.45,3.45,0,0,0,1,.64c.17.06.37.11.61.17s.51.11.84.17a6.48,6.48,0,0,0,1.16.16Zm-56.75-15.35-4.92-13.75-4.82,13.75Zm17.73,15.35H134.75V297.6a13.45,13.45,0,0,0,1.42-.19c.51-.1,1-.23,1.59-.36,1.17-.27,1.76-.61,1.76-1v-.25a1,1,0,0,0,0-.25c0-.12,0-.23,0-.34a2.39,2.39,0,0,1-.15-.37l-2.86-7.79H124.75c-.14.35-.29.75-.45,1.18s-.3.89-.47,1.39-.3,1-.44,1.39-.27.84-.39,1.25-.27.9-.36,1.26a5.69,5.69,0,0,0-.18.84,1.41,1.41,0,0,1-.07.56.75.75,0,0,0,0,.37c0,.6.39,1.09,1.17,1.48a7.55,7.55,0,0,0,1.54.52,15,15,0,0,0,2.31.36v2.08H113.53v-2.08a4.84,4.84,0,0,0,.83-.13l1-.15a4.76,4.76,0,0,0,.9-.3,3.11,3.11,0,0,0,.67-.36c.3-.22.6-.45.89-.7a5.86,5.86,0,0,0,.76-.89,8.21,8.21,0,0,0,1.12-2.19c.93-2.5,1.84-5,2.78-7.54s1.85-5,2.77-7.5,1.89-5.18,2.91-8,2.08-5.68,3.17-8.72h4.78q4.65,12.93,7.28,20.43c.88,2.5,1.67,4.77,2.44,6.86s1.44,3.94,2,5.58l.37.77a6,6,0,0,0,.4.7c.19.2.38.4.6.61a5.05,5.05,0,0,0,.78.6,4.84,4.84,0,0,0,.72.36,6,6,0,0,0,.84.3,5.82,5.82,0,0,0,.83.17l.77.1Zm-49.7-10.51a10.66,10.66,0,0,0-.53-3.5,6.25,6.25,0,0,0-4.13-4.16,10.66,10.66,0,0,0-3.46-.54H94.09c-.23,0-.45,0-.61.06a3.06,3.06,0,0,0-.45.06V295a2.67,2.67,0,0,0,.43.92,4.36,4.36,0,0,0,.88.78,4.28,4.28,0,0,0,1.24.49,6.27,6.27,0,0,0,1.5.16,6.19,6.19,0,0,0,2.54-.53,5.63,5.63,0,0,0,2-1.6,7.73,7.73,0,0,0,1.35-2.59,11.81,11.81,0,0,0,.45-3.45M101.78,271a10.06,10.06,0,0,0-.38-2.83,5.4,5.4,0,0,0-1.17-2.09,5.12,5.12,0,0,0-2-1.37,7.94,7.94,0,0,0-2.78-.44H94.28a5.12,5.12,0,0,1-.67,0h-.55v14.08h1.22a10.19,10.19,0,0,0,3.33-.5,5.35,5.35,0,0,0,2.33-1.52A6.38,6.38,0,0,0,101.3,274a9.77,9.77,0,0,0,.44-3.08m7.7,11.4a9.37,9.37,0,0,1,1.35,1.32,10.19,10.19,0,0,1,1.09,1.67,8.38,8.38,0,0,1,.72,1.94,9.28,9.28,0,0,1,.25,2.22,12.82,12.82,0,0,1-.27,2.7,9.91,9.91,0,0,1-.84,2.24,8.31,8.31,0,0,1-1.31,1.76,8.2,8.2,0,0,1-1.8,1.36,11.59,11.59,0,0,1-2.3,1,19.88,19.88,0,0,1-2.62.71,37.11,37.11,0,0,1-6.58.5H79.63V297.7a5,5,0,0,0,.83-.13l1-.15.94-.16a4.77,4.77,0,0,0,.62-.17,2.77,2.77,0,0,0,.74-.48,2.51,2.51,0,0,0,.46-.61,3.28,3.28,0,0,0,.24-.75,5,5,0,0,0,.06-.95V267.55a5.26,5.26,0,0,0,0-.88,2.42,2.42,0,0,0-.19-.7,1.88,1.88,0,0,0-.44-.64,4.15,4.15,0,0,0-.83-.52c-.25-.11-.51-.22-.79-.32a7.09,7.09,0,0,0-.91-.22c-.33-.09-.63-.16-.92-.22l-.83-.18v-2.08H97.9a29,29,0,0,1,6,.53,11.23,11.23,0,0,1,4,1.61,7,7,0,0,1,2.31,2.66,8.46,8.46,0,0,1,.75,3.64,10.2,10.2,0,0,1-.15,1.83,6.73,6.73,0,0,1-.52,1.57,5.94,5.94,0,0,1-.84,1.36,7.75,7.75,0,0,1-1.12,1.17,11.71,11.71,0,0,1-1.29.93,12.54,12.54,0,0,1-1.53.83c-.54.21-1.1.44-1.67.64a13.29,13.29,0,0,1-1.8.51v.55a13.72,13.72,0,0,1,1.92.31c.66.18,1.31.38,1.94.62a13.48,13.48,0,0,1,1.88.77,12.4,12.4,0,0,1,1.62,1m-47.83,2.08-4.93-13.76-4.81,13.76Zm17.73,15.35H60.88v-2.08a13.81,13.81,0,0,0,1.42-.19c.5-.1,1-.23,1.59-.36q1.77-.42,1.77-1a1,1,0,0,0,0-.25,1,1,0,0,0,0-.25,1.88,1.88,0,0,0,0-.33c0-.11-.09-.23-.14-.37l-2.88-7.9H50.93c-.15.35-.3.75-.45,1.19L50,289.65,49.57,291c-.14.43-.28.83-.39,1.24s-.28.91-.36,1.27a4,4,0,0,0-.18.83,4,4,0,0,1-.07.57,2.28,2.28,0,0,0,0,.37c0,.6.38,1.09,1.16,1.48a8.07,8.07,0,0,0,1.55.52,16.38,16.38,0,0,0,2.3.35v2.09H39.75v-2.09a5,5,0,0,0,.83-.12l1-.15a4.76,4.76,0,0,0,.9-.3,3.48,3.48,0,0,0,.66-.36A7.81,7.81,0,0,0,44,296a4.26,4.26,0,0,0,.76-.88,10.23,10.23,0,0,0,.62-1,7.8,7.8,0,0,0,.5-1.2c.93-2.52,1.85-5,2.78-7.54s1.85-5,2.78-7.5,1.89-5.19,2.91-7.95,2.09-5.68,3.17-8.72h4.74q4.66,12.92,7.29,20.42c.89,2.5,1.67,4.77,2.44,6.86s1.45,3.94,2,5.58c.12.26.24.52.38.77a4.38,4.38,0,0,0,.4.7,8.28,8.28,0,0,0,.59.61,5.05,5.05,0,0,0,.78.6,4.3,4.3,0,0,0,.71.36,6,6,0,0,0,.84.3,5.82,5.82,0,0,0,.83.17l.77.1ZM40.58,263.87c-.44.06-1.06.17-1.9.34a4.13,4.13,0,0,0-1.19.33,3.54,3.54,0,0,0-1.05.71,3,3,0,0,0-.76.93,5.91,5.91,0,0,0-.5,1.54,15.27,15.27,0,0,0-.27,2.14c0,.83-.08,1.86-.08,3V300h-4.2l-21-29.38v17.81a26.15,26.15,0,0,0,.1,2.94,16.32,16.32,0,0,0,.29,2.1,6.69,6.69,0,0,0,.5,1.53,4.19,4.19,0,0,0,.76,1.06,4.1,4.1,0,0,0,.84.53,8,8,0,0,0,1.2.5l1.26.37,1,.24v2.08H1V297.7c.33,0,.66-.09,1-.16l1.14-.23a7,7,0,0,0,1.08-.4,4.65,4.65,0,0,0,.92-.59,3,3,0,0,0,.83-.95A4.25,4.25,0,0,0,6.46,294a13.39,13.39,0,0,0,.26-2.1c.06-.87.08-1.93.08-3.15v-18a9.89,9.89,0,0,0-.08-1.33,9,9,0,0,0-.26-1.25A6.42,6.42,0,0,0,6,267.12a7.9,7.9,0,0,0-.7-.94,6.3,6.3,0,0,0-.88-.83,4.79,4.79,0,0,0-1-.62,14.37,14.37,0,0,0-2.5-.83v-2.14H13.58L32,287.5V273.14a27.38,27.38,0,0,0-.1-3,13.47,13.47,0,0,0-.29-2.09,7.35,7.35,0,0,0-.53-1.49,4.37,4.37,0,0,0-.78-1,3.9,3.9,0,0,0-.83-.56,7.47,7.47,0,0,0-1.21-.49l-1.2-.35c-.37-.1-.7-.19-1-.25v-2.08H40.58Z"/><path d="M116,120.92a21.1,21.1,0,0,0,17.14-20.56c0-11.45-9.73-20.73-21-20.73a20.74,20.74,0,0,0-3.11,41.2s1,.4,1.18-1.32a16.84,16.84,0,0,0,0-3.33s-.34-1.27-.74-2.5a32.07,32.07,0,0,1-2.9-13.8c.33-7.2,4.5-9.28,5.5-16,0,0,3.39,7.41,5.26,12.55a15.75,15.75,0,0,1,.12,10.91c-.66,2.18-2.43,6.54-2.65,8.95s-.23,3.27-.23,3.27a1.37,1.37,0,0,0,1.35,1.38.4.4,0,0,0,.11,0m1.67,1.15a22.88,22.88,0,1,0-9.63.39,3.31,3.31,0,0,1,2.9,1.41,2.85,2.85,0,0,1,.5,1.34s.36,10,.26,11.91-1.76.16-1.76.16c-.71-8-8.45-13.78-15.35-17.22a21.24,21.24,0,0,1-8.2-7.25c-2.45-3.92-2.36-9.85-2.36-9.85-5.64,15,.55,25.11.55,25.11,5.26,8.34,11,9.46,18.69,13.34,4,2,2.81,3.89,1.88,4-10.83-1.57-19-7.1-25.4-14.66a43.46,43.46,0,0,1-10.22-28c0-23.85,19.09-43.19,42.61-43.19s42.57,19.37,42.57,43.22c0,21.22-14.4,39-34.34,42.61-1.09.25-3.83-1.48,1-3.82,3-1.49,9-3.23,13.77-7.41s7-8.45,7.8-15.5a31.31,31.31,0,0,0-2.1-15.61s-.23,6.47-2.66,9.94-3.74,4.17-9.17,7.75-10.37,6.59-12.23,10.41a16,16,0,0,0-1.88,6.12s-1.62,1.85-1.62-.34.35-11.56.35-11.56A2.05,2.05,0,0,1,114,124c.47-.74,1.5-1.54,3.77-1.9m5.84,57a76.95,76.95,0,1,0-23-.25s.57-3-11.81-8.51-26.88-10.48-30.6-22.16.14-28,.24-38.81c0,0,1.17,10.42,4.73,18.33,5.13,11.35,14.64,15.37,25.14,19.89,0,0,11.67,4.35,15.9,9.81a15.27,15.27,0,0,1,3.47,6.08c.56,1.79,2.41,1.75,2.5.09a95.74,95.74,0,0,0-.73-11.47c-.4-2-.73-3.4-4.24-5.08-24.73-3.44-42.5-24.56-42.5-50,0-27.79,21.45-50.23,49.05-50.23a50.36,50.36,0,0,1,8,100s-3.58.84-4.25,5.59a100.44,100.44,0,0,0-.66,11.24s1,2.06,2.22.21c0,0,1.36-8.53,14.32-13.93,15.83-6.6,28.11-10.91,33-30.17,0,0,2-8.46,2-10.4,0,0,1.75,17,1.9,20.48s1.3,14.72-2.42,20.35-3.76,7.34-13,12.5-12.38,5.65-15.24,6.92-10,3.76-13.92,9.47m39.69,63.73h5.56s1.88-11.58,9.16-16.47,9.44-5.24,14.49-7.79c18.67-9.42,31.56-22.24,32-47.24.17-9.6-1.24-74.45-1.24-74.45l-.56-37.42s-14.69,0-21.35,12.91C192.25,30.92,156,0,112.5,0c-44,0-80.68,31.67-89.3,73.8V72.5c-6.67-13-21.4-13-21.4-13L1.24,96.9S-.17,161.75,0,171.35c.45,25,13.33,37.82,32,47.23,5,2.55,7.21,2.93,14.49,7.79s9.16,16.47,9.16,16.47h5.56c-.55-17.54-18.62-24.07-33.33-32.61a64.34,64.34,0,0,1-12.72-10.35C4.56,189.15,4.36,171.55,4.36,171.55l.25-17.41L4.69,123,5,91,4.92,63.6c11,1.67,15.51,10.54,17.26,16.08a96,96,0,0,0-.91,13.12c0,41.67,26.27,76.46,63.4,88.2,0,0,11.77,2.11,14.7,7.09s2.36,1.79,5.15,11.74c0,0,2.5,8.82,2.35,23S106.6,243,106.6,243h2.92a118,118,0,0,0,.7-27.34c-1.4-15.05-1.81-21.95-7-29.26a5.69,5.69,0,0,0-.62-.84,14.2,14.2,0,0,0-2.19-2,23.33,23.33,0,0,0-4.22-2.5,57.35,57.35,0,0,0-8-2.83c-37.24-11.61-63.39-45.6-63.39-85.78,0-49.22,39.27-89.17,87.71-89.17s87.7,40,87.7,89.17c0,39.49-25.28,73-60.32,84.69,0,0-8.5,2.72-11.93,4.34s-8.73,4.92-10.92,15.09-2,12.78-2.28,16.71-.64,9.54-.52,14.66.45,11.9.84,15.14h3.28s-.52-12.55-.52-19.55a99,99,0,0,1,1.66-20.48c1.47-7.36,4.17-13.7,6.54-16.08s8.18-4.17,10.55-4.9a93.26,93.26,0,0,0,66.9-89.46,94.56,94.56,0,0,0-1-13.76c1.91-5.56,6.46-13.72,17-15.32l-.08,27.35.32,32.09.07,31.1.25,17.41s-.17,17.56-10.83,28.33a63.09,63.09,0,0,1-12.71,10.34c-14.72,8.55-32.79,15.08-33.33,32.62"/></svg>